<?xml version="1.0" standalone="no"?>
<!DOCTYPE svg PUBLIC "-//W3C//DTD SVG 20010904//EN"
 "http://www.w3.org/TR/2001/REC-SVG-20010904/DTD/svg10.dtd">
<svg version="1.0" xmlns="http://www.w3.org/2000/svg"
 width="225.000000pt" height="225.000000pt" viewBox="0 0 225.000000 225.000000"
 preserveAspectRatio="xMidYMid meet">
<metadata>
Created by potrace 1.16, written by Peter Selinger 2001-2019
</metadata>
<g transform="translate(0.000000,225.000000) scale(0.100000,-0.100000)"
fill="#000000" stroke="none">
<path d="M1375 1942 c-194 -68 -314 -250 -290 -439 l6 -53 -48 6 c-92 11 -208
36 -278 61 -173 62 -358 182 -473 308 -28 30 -53 55 -55 55 -12 0 -48 -106
-53 -159 -14 -126 30 -247 122 -339 l55 -54 -43 7 c-24 4 -63 16 -87 26 -24
10 -46 19 -49 19 -2 0 -2 -27 1 -59 11 -123 102 -252 220 -311 33 -16 66 -30
74 -30 7 0 13 -4 13 -10 0 -6 -33 -10 -80 -10 -57 0 -80 -4 -80 -12 0 -27 60
-115 109 -161 60 -57 145 -98 213 -105 26 -2 48 -7 48 -11 0 -12 -122 -84
-187 -110 -105 -43 -158 -54 -288 -60 l-120 -7 115 -56 c63 -32 160 -69 215
-84 94 -26 112 -28 305 -28 190 0 212 2 302 26 370 100 670 379 802 746 38
106 66 258 66 356 l0 86 94 93 c51 50 99 102 105 115 12 23 12 23 -16 9 -25
-12 -99 -34 -177 -52 -26 -5 -23 -1 28 46 54 49 116 138 116 167 0 8 -20 2
-57 -17 -32 -16 -88 -38 -126 -50 l-67 -20 -53 39 c-76 59 -146 83 -247 87
-63 2 -98 -1 -135 -15z"/>
</g>
</svg>
